<svg width="91" height="91" viewBox="0 0 91 91" fill="none" xmlns="http://www.w3.org/2000/svg">
<rect x="3" y="3" width="85" height="85" rx="15.8663" fill="#0C3B35" stroke="black" stroke-width="4.40731"/>
<ellipse cx="14.585" cy="14.4697" rx="4.48242" ry="5.07743" fill="#FF0000"/>
<ellipse cx="28.1984" cy="14.4697" rx="4.48242" ry="5.07743" fill="#FF9900"/>
<ellipse cx="41.8116" cy="14.4697" rx="4.48242" ry="5.07743" fill="#31CD6B"/>
<path d="M3 25.1903H88V76.2472C88 82.7381 82.7381 88 76.2472 88H14.7528C8.26192 88 3 82.7381 3 76.2472V25.1903Z" fill="white" fill-opacity="0.8" stroke="black" stroke-width="4.40731"/>
<path d="M34.7235 47.0174C35.2978 46.4008 36.2754 46.4035 36.8462 47.0232V47.0232C37.3692 47.5909 37.3544 48.4692 36.8126 49.019L31.2341 54.6797C30.4451 55.4804 30.4451 56.7663 31.2341 57.567L36.8126 63.2278C37.3544 63.7776 37.3692 64.6558 36.8462 65.2235V65.2235C36.2754 65.8433 35.2978 65.8459 34.7235 65.2294L27.5478 57.5252C26.8122 56.7354 26.8122 55.5114 27.5478 54.7216L34.7235 47.0174Z" fill="#31CD6B"/>
<path d="M56.3594 47.3935C55.7851 46.7769 54.8075 46.7796 54.2366 47.3993V47.3993C53.7137 47.967 53.7285 48.8453 54.2702 49.395L59.8488 55.0558C60.6378 55.8565 60.6378 57.1424 59.8488 57.9431L54.2702 63.6039C53.7285 64.1537 53.7137 65.0319 54.2366 65.5996V65.5996C54.8075 66.2193 55.7851 66.222 56.3594 65.6054L63.5351 57.9013C64.2707 57.1115 64.2707 55.8874 63.5351 55.0977L56.3594 47.3935Z" fill="#31CD6B"/>
<rect width="2.56409" height="34.2498" rx="1.28204" transform="matrix(0.972471 0.233024 -0.184093 0.982909 46.9819 39.4807)" fill="#31CD6B"/>
</svg>
